<?xml version="1.0" encoding="iso-8859-1"?>
<!-- Generator: Adobe Illustrator 18.0.0, SVG Export Plug-In . SVG Version: 6.00 Build 0)  -->
<!DOCTYPE svg PUBLIC "-//W3C//DTD SVG 1.1//EN" "http://www.w3.org/Graphics/SVG/1.1/DTD/svg11.dtd">
<svg version="1.1" id="Layer_1" xmlns="http://www.w3.org/2000/svg" xmlns:xlink="http://www.w3.org/1999/xlink" x="0px" y="0px"
	 width="50px" height="50px" viewBox="0 0 50 50" style="enable-background:new 0 0 50 50;" xml:space="preserve">
<path style="fill:none;stroke:#000000;stroke-width:2;stroke-linecap:round;stroke-linejoin:round;stroke-miterlimit:10;" d="M36,5
	H14c-4.971,0-9,4.029-9,9v22c0,4.971,4.029,9,9,9h22c4.971,0,9-4.029,9-9V14C45,9.029,40.971,5,36,5z"/>
<path style="fill:none;stroke:#000000;stroke-width:2;stroke-linecap:round;stroke-linejoin:round;stroke-miterlimit:10;" d="M25,12
	c-7.732,0-14,5.356-14,11.962c0,4.43,2.826,8.289,7.014,10.356C17.387,35.678,16.171,36.957,15,38.1
	c2.328-0.413,4.821-1.278,6.701-2.523c1.06,0.22,2.16,0.348,3.299,0.348c7.732,0,14-5.356,14-11.962S32.732,12,25,12z"/>
</svg>